<?xml version="1.0" encoding="UTF-8"?>
<svg id="Layer_1" data-name="Layer 1" xmlns="http://www.w3.org/2000/svg" viewBox="0 0 479.79 197.07">
  <defs>
    <style>
      .cls-1 {
        fill: #d2b774;
      }
    </style>
  </defs>
  <path class="cls-1" d="M207.71,82.94c-11.16-14.26-48.12,15.82-48.18,54.33l-.08,47.12,45.38-.22c8.95-.04,17.52-3.82,24.87-8.11,2.66,3.82,7.28,6.01,10.69,8.7l1.66,1.31c.5.4-1.54,1.66-2.32,1.95l-115.23-.3c8.12-5.13,14.85-6.7,14.85-15.83l.02-155.93c0-2.99-1.86-6.17-3.43-8.6-4.75,3.97-9.44,7.8-11.61,13.58l-41.96,111.79.1,40c.02,6.93,6.22,12.14,12.22,12.51.79.05,1.47,2.42,1.11,3.16l-46.27.04-.45-2.92c6.59-.23,13.12-5.37,13.12-12.59v-40.91S18.86,16.5,18.86,16.5C15.52,7.58,9.35,5.73,0,.92L46.84.34c.21.04,2.6,1.41,2.12,1.67l-2.21,1.17c-2.73,1.44-5.61,2.57-7.12,4.64-1.32,1.81-1.83,6.1-.83,8.75l41.89,110.53L119.46,24.13c1.67-4.42,1.35-9.05.09-13.3-3.53-4.71-9.12-6.06-14.63-7.37l-2.48-.59c-.72-.17.8-2.45,1.77-2.46l22.68-.26L234.82,0c1.9,0,4.18,2.62,4.16,4.31l-.25,16.84c-.02,1.6-2.76,4.66-4.15,5.86-4.35-16.25-19.13-23.19-35.67-23.23l-39.49-.08.11,110.9c9.39-22.36,24.24-33.99,44.34-47.1,8.59-5.61,9.31-13.36,13.62-23.55,1.55,26.54.77,51.2.13,77.44-4.19-7.1-1.98-14.35-3.47-21.39-1.24-5.89-2.44-11.98-6.44-17.08Z"/>
  <path class="cls-1" d="M427.45,187.59c8.46-4.24,14.95-6.57,14.95-15.35l.07-77.81h-74.32s.03,77.8.03,77.8c.45,7.71,5.91,13.1,13.54,13.21l-.2,3-45.88-.08c27.15-19.83,33.49-55.91,12.49-81.27l-.17-90.53c-.03-14.6-19.06-12.29-12.05-16.18l45.73.03.16,2.78c-8.71.4-13.68,6.97-13.67,15.25l.06,72.37,74.28.06-.07-74.14c0-6.9-5.18-12.04-11.56-13.18l-2.15-.76c-.65-.23.63-2.26,1.07-2.45,16.3.3,31.37-.65,47.68.86-8.93,4.47-15.05,6.72-15.05,15.73l-.05,149.44c-7.27,6.89-7.6,14.68-1.11,22.07-11.46-.12-22.04.51-33.76-.84Z"/>
  <path class="cls-1" d="M312.67,194.81c-27.6,6.7-57.48-1.98-79.56-19.34,1.03-19.42-1.38-37.51,1.79-57.07,1.64,19.06,4.3,35.95,14.76,51.03,11.95,17.24,30.33,25.72,51.19,23.8,20.88-1.92,36.23-17.79,36.47-39.07.55-49.4-52.96-52.16-87.64-74.43-14.51-9.32-20.78-25.26-15.37-42.16,6.27-19.57,24.81-32.77,45.87-33.84,21.1-1.07,41.33,6.05,59.26,16.9,2.3,1.39,5.02,5.13,4.9,7.62-.78,15.42,1.52,29.72-1.56,45.4-2.62-18.73-5.58-34.86-17.86-48.4-13.92-15.34-35.26-21.62-55.34-16.12-11,3.02-18.6,12.07-19.64,23.17-3.69,39.65,55.63,42.86,90.15,71.83,15.03,12.61,20.75,31.66,15.34,50.9-5.6,19.9-21.86,34.7-42.76,39.78Z"/>
  <circle class="cls-1" cx="469.82" cy="177.9" r="9.96"/>
</svg>